<?xml version="1.0" standalone="no"?>
<!DOCTYPE svg PUBLIC "-//W3C//DTD SVG 20010904//EN"
 "http://www.w3.org/TR/2001/REC-SVG-20010904/DTD/svg10.dtd">
<svg version="1.0" xmlns="http://www.w3.org/2000/svg"
 width="500.000000pt" height="500.000000pt" viewBox="0 0 500.000000 500.000000"
 preserveAspectRatio="xMidYMid meet">
<metadata>
Created by potrace 1.11, written by Peter Selinger 2001-2013
</metadata>
<g transform="translate(0.000000,500.000000) scale(0.100000,-0.100000)"
fill="#000000" stroke="none">
<path d="M2360 4198 c0 -11 -5 -15 -14 -12 -7 3 -20 -2 -28 -10 -12 -11 -18
-12 -27 -3 -10 9 -12 9 -9 -3 2 -8 -3 -14 -10 -12 -8 1 -11 -2 -7 -8 3 -5 0
-13 -9 -16 -8 -3 -17 -12 -20 -20 -3 -8 -2 -13 3 -10 5 4 4 -5 -2 -18 -7 -13
-15 -22 -18 -20 -4 2 -10 -3 -13 -11 -3 -8 -11 -14 -18 -13 -7 2 -12 -3 -10
-9 2 -11 -17 -18 -40 -14 -5 0 -8 -5 -8 -13 0 -8 -5 -18 -12 -22 -7 -5 -8 -2
-3 7 5 8 4 11 -1 6 -5 -5 -10 -13 -10 -18 -1 -5 -2 -14 -3 -20 0 -5 -5 -7 -11
-4 -5 3 -10 1 -10 -6 0 -6 -8 -18 -17 -26 -10 -8 -12 -12 -5 -8 7 4 4 -9 -8
-30 -11 -20 -16 -34 -10 -30 14 9 13 -8 -2 -24 -10 -11 -10 -13 0 -7 7 5 12 1
12 -9 0 -9 -5 -13 -11 -9 -6 3 -4 -5 5 -18 9 -14 13 -28 9 -31 -3 -4 1 -7 11
-7 9 0 15 -4 11 -9 -3 -5 1 -16 9 -24 8 -8 12 -17 9 -21 -4 -3 2 -6 13 -6 16
0 17 -2 4 -10 -13 -8 -13 -10 1 -10 12 0 16 -8 14 -30 -1 -16 4 -35 11 -41 8
-6 14 -20 14 -30 0 -12 7 -19 20 -19 11 0 20 -4 20 -10 0 -5 7 -10 16 -10 12
0 15 -6 11 -21 -3 -12 0 -22 9 -26 8 -3 11 -9 8 -14 -3 -5 -1 -9 4 -9 6 0 25
-14 42 -30 27 -25 31 -33 20 -43 -10 -9 -11 -9 -6 1 8 14 -10 17 -18 3 -3 -5
-22 -8 -42 -6 -23 1 -38 -3 -41 -11 -3 -8 -9 -14 -15 -14 -5 0 -7 4 -3 10 3 5
-7 3 -21 -5 -15 -8 -31 -12 -36 -9 -4 3 -8 0 -8 -5 0 -6 -5 -11 -11 -11 -5 0
-7 5 -4 10 3 6 1 10 -4 10 -6 0 -11 -5 -11 -11 0 -5 -5 -7 -10 -4 -6 3 -13 -1
-16 -9 -3 -8 -15 -18 -26 -22 -16 -5 -18 -8 -7 -15 10 -6 11 -9 2 -9 -16 0
-18 -96 -3 -105 8 -5 7 -11 -1 -21 -9 -11 -9 -14 1 -14 9 0 9 -4 -1 -17 -11
-13 -11 -15 -1 -9 9 5 13 3 11 -5 -1 -8 -1 -31 0 -52 1 -28 4 -36 14 -31 9 6
9 5 0 -7 -13 -16 -14 -61 -1 -53 4 3 8 -13 8 -36 0 -30 3 -39 13 -34 9 6 9 4
1 -7 -13 -15 -13 -47 0 -67 4 -7 5 -20 2 -28 -3 -8 -2 -12 4 -9 5 3 8 -14 6
-40 -1 -28 3 -50 11 -56 15 -13 18 -33 4 -24 -5 3 -13 0 -17 -6 -5 -8 -3 -9 6
-4 10 6 12 4 7 -9 -4 -10 -3 -15 3 -11 9 6 14 -37 11 -95 -1 -18 1 -21 7 -12
7 11 10 9 15 -7 3 -14 1 -19 -6 -14 -9 5 -9 3 -1 -8 6 -8 10 -28 9 -46 -1 -18
2 -30 6 -27 4 2 10 0 14 -6 3 -5 0 -10 -7 -10 -11 0 -11 -2 0 -9 8 -4 13 -14
12 -22 -4 -26 0 -40 9 -35 5 3 11 -1 15 -9 3 -8 15 -15 27 -15 15 0 19 -5 15
-15 -3 -8 -1 -15 4 -15 5 0 11 8 13 18 3 10 5 6 6 -10 1 -39 2 -41 13 -62 6
-10 6 -16 1 -13 -5 4 -10 0 -10 -8 0 -8 4 -12 9 -9 8 5 9 0 11 -78 1 -27 6
-48 12 -48 5 0 3 -5 -5 -10 -12 -8 -12 -10 5 -11 l20 0 -20 -9 -20 -9 20 0
c17 -1 17 -3 5 -11 -10 -6 -11 -10 -2 -10 8 0 12 -18 12 -56 0 -41 3 -53 13
-48 8 5 8 2 -2 -9 -9 -12 -10 -17 -2 -17 9 0 9 -5 0 -21 -8 -15 -8 -19 0 -15
11 7 14 -23 13 -97 0 -16 3 -25 10 -21 6 4 8 -1 4 -14 -5 -13 -1 -22 10 -26
13 -5 14 -9 5 -20 -9 -11 -9 -16 0 -22 8 -5 9 -3 4 6 -5 9 -4 11 4 6 9 -6 9
-11 -1 -23 -7 -9 -13 -26 -13 -38 -1 -13 -7 -30 -14 -39 -11 -13 -11 -17 3
-22 9 -3 16 -10 16 -16 0 -5 -4 -7 -9 -3 -5 3 -13 1 -16 -5 -4 -6 -3 -10 2 -9
20 3 25 -2 13 -16 -8 -10 -9 -15 -1 -15 6 0 9 -13 7 -30 -2 -16 0 -30 4 -30 4
0 7 -6 7 -12 1 -25 8 -43 23 -55 13 -11 12 -12 -5 -7 l-20 6 20 -13 c11 -7 23
-16 26 -21 12 -18 50 -17 69 2 11 11 20 25 20 30 0 14 17 13 26 -2 5 -7 2 -9
-7 -4 -8 4 -3 -1 11 -12 13 -11 28 -18 32 -16 4 3 8 0 8 -5 0 -16 16 -13 34 4
8 8 19 15 25 15 6 0 11 7 11 16 0 8 4 13 8 10 4 -2 8 3 9 12 8 71 13 108 19
121 10 24 12 61 2 55 -4 -3 -8 0 -8 5 0 6 4 11 8 11 4 0 8 9 8 20 0 11 -5 19
-11 17 -13 -6 -12 72 2 98 6 11 10 35 9 53 -1 24 3 31 13 27 11 -4 11 -2 2 9
-9 11 -9 15 1 19 10 4 10 6 -1 6 -10 1 -10 5 -3 14 6 6 9 30 9 52 -1 22 4 46
11 53 6 7 12 19 12 25 0 7 -4 6 -10 -3 -8 -12 -10 -11 -7 5 1 11 5 25 8 30 3
6 7 30 8 55 2 25 8 48 14 52 9 6 8 8 -2 8 -11 0 -11 3 0 17 12 14 12 16 -1 9
-9 -4 -8 -1 3 7 18 15 24 32 7 22 -5 -3 -10 -2 -10 4 0 5 5 13 10 16 6 4 8 11
4 16 -3 5 0 17 8 26 11 14 11 16 -2 8 -12 -7 -13 -6 -3 6 9 11 9 19 2 26 -8 8
-8 13 0 17 6 4 11 2 11 -5 0 -7 3 -9 6 -6 4 4 1 13 -6 22 -7 8 -9 15 -5 15 4
0 1 8 -6 18 -12 15 -12 16 1 5 9 -6 25 -10 35 -8 11 2 25 4 31 4 7 1 19 13 29
27 11 18 13 24 4 19 -11 -6 -12 -5 -1 6 6 7 12 26 12 41 0 15 5 28 11 28 8 0
8 5 -1 15 -8 10 -9 20 -3 28 15 19 34 69 25 63 -5 -3 -7 5 -6 17 1 12 3 26 3
30 1 5 5 6 10 2 11 -6 7 28 -5 47 -4 7 -3 8 4 4 11 -7 18 41 13 83 -2 8 2 10
11 5 11 -6 11 -5 0 8 -9 11 -9 17 -2 20 7 2 12 30 12 68 1 40 6 70 15 78 20
20 16 37 -4 21 -13 -10 -13 -8 2 10 11 13 19 25 18 27 -2 2 -3 20 -3 40 0 22
4 33 11 29 6 -4 5 2 -2 13 -10 16 -10 24 -1 35 7 8 13 39 13 70 1 31 5 55 8
52 4 -2 7 9 7 25 0 17 -4 26 -10 23 -5 -4 -7 1 -3 10 3 9 0 23 -8 31 -8 8 -15
20 -15 26 0 7 -6 10 -14 7 -7 -3 -25 3 -41 13 -15 10 -35 15 -46 13 -11 -3
-27 1 -36 8 -14 12 -16 12 -9 -1 6 -12 5 -12 -6 1 -7 8 -26 15 -43 14 -16 -1
-36 4 -44 9 -11 8 -13 8 -7 -1 5 -9 2 -11 -8 -7 -19 7 -3 44 19 44 8 0 15 5
15 11 0 5 -5 7 -12 3 -7 -4 -8 -3 -4 4 4 7 16 12 27 12 11 0 17 5 14 10 -3 6
-1 10 5 10 6 0 8 5 5 10 -3 6 -1 10 5 10 6 0 9 4 5 9 -3 5 -1 12 5 16 6 4 8
11 4 16 -3 5 -2 9 3 8 24 -4 53 2 48 11 -3 6 -1 10 4 10 6 0 11 9 11 20 0 11
5 20 10 20 6 0 10 5 10 11 0 5 -6 7 -12 3 -10 -6 -10 -4 0 7 6 7 12 23 12 35
0 13 7 29 15 38 8 8 15 19 15 24 0 6 5 12 11 14 7 2 13 16 13 30 1 15 6 31 10
35 5 4 7 3 3 -2 -3 -6 -2 -17 2 -24 4 -6 7 13 6 43 0 30 -6 61 -13 69 -6 7 -9
17 -5 20 3 4 -2 9 -11 13 -9 3 -16 15 -16 25 0 10 -7 19 -15 19 -8 0 -15 7
-15 16 0 8 -4 12 -10 9 -5 -3 -10 1 -10 10 0 9 -4 14 -9 10 -6 -3 -19 5 -30
17 -12 12 -21 18 -21 13 0 -4 -9 0 -20 10 -12 10 -18 25 -16 32 3 8 -1 16 -9
19 -7 3 -12 11 -9 18 3 7 -2 19 -11 26 -8 7 -15 9 -15 4 0 -5 -7 1 -15 12 -9
14 -23 20 -40 18 -16 -1 -28 3 -32 12 -4 12 -8 12 -19 -3 -11 -14 -13 -15 -9
-2 5 14 -6 16 -85 17 -66 0 -88 -3 -83 -11 5 -8 2 -8 -8 0 -12 10 -18 10 -28
0 -9 -9 -14 -9 -21 3 -8 13 -10 12 -10 -2z m576 -334 c1 -9 0 -13 -4 -10 -3 4
-7 14 -8 22 -1 9 0 13 4 10 3 -4 7 -14 8 -22z m-429 -2178 c-3 -7 0 -19 6 -26
9 -10 9 -11 0 -6 -8 5 -13 1 -14 -11 0 -15 -2 -15 -11 4 -12 24 -5 53 13 53 6
0 9 -6 6 -14z m150 -161 c0 -8 -4 -12 -9 -9 -5 3 -6 10 -3 15 9 13 12 11 12
-6z"/>
<path d="M2450 1100 c0 -5 5 -10 11 -10 5 0 7 5 4 10 -3 6 -8 10 -11 10 -2 0
-4 -4 -4 -10z"/>
<path d="M2330 1082 c0 -5 7 -9 15 -9 8 0 12 4 9 9 -3 4 -9 8 -15 8 -5 0 -9
-4 -9 -8z"/>
<path d="M2550 1080 c0 -6 7 -13 15 -16 8 -4 13 -9 10 -13 -2 -4 2 -8 10 -8
19 0 19 0 -10 25 -14 12 -25 17 -25 12z"/>
<path d="M2396 1065 c6 -16 4 -18 -6 -8 -9 8 -19 9 -30 3 -9 -5 -29 -7 -44 -4
-17 3 -28 0 -32 -10 -5 -13 -39 -14 -52 -1 -8 8 -32 -16 -26 -27 4 -6 -4 -8
-17 -7 -13 2 -25 -1 -26 -6 -1 -6 8 -9 20 -8 21 3 21 2 2 -6 -11 -4 -27 -6
-35 -3 -13 5 -13 4 0 -13 14 -17 14 -17 -17 -2 l-31 17 3 -26 c2 -19 -3 -28
-17 -32 -15 -4 -17 -7 -6 -13 19 -12 30 -11 22 3 -4 7 -3 8 5 4 6 -4 9 -11 6
-16 -3 -5 0 -12 6 -16 9 -5 6 -11 -7 -22 -15 -12 -16 -14 -2 -9 12 4 20 -2 27
-21 l10 -27 -2 32 c0 17 -4 30 -7 28 -3 -2 -7 6 -7 18 -2 21 -1 21 12 3 8 -10
12 -23 9 -27 -10 -17 9 -9 22 9 13 16 14 16 8 -1 -4 -11 -2 -16 7 -14 8 2 11
2 7 0 -4 -2 -4 -12 -1 -21 5 -14 3 -13 -9 2 -12 15 -17 16 -23 6 -5 -9 -4 -11
3 -6 11 7 17 -6 12 -29 -1 -5 4 -5 11 2 9 9 17 8 34 -3 20 -13 23 -13 28 0 4
10 1 13 -9 9 -7 -3 -14 0 -14 7 0 6 -4 8 -10 5 -5 -3 -10 -1 -10 4 0 14 17 14
26 0 4 -8 9 -7 15 2 6 10 9 11 9 2 0 -7 7 -13 15 -13 8 0 15 -5 15 -11 0 -5
-4 -8 -9 -4 -5 3 -12 1 -15 -4 -4 -5 -1 -13 5 -17 6 -3 15 0 20 7 6 11 11 11
21 1 15 -15 28 -16 28 -1 0 5 -5 7 -12 3 -6 -4 -8 -3 -4 4 3 6 -2 13 -11 15
-14 4 -13 5 5 6 12 0 22 -4 22 -11 0 -9 3 -9 11 -1 17 17 42 5 26 -12 -9 -9
-14 -10 -19 -2 -4 7 -6 2 -5 -11 2 -27 0 -27 31 2 14 13 36 23 48 22 13 -1 27
3 31 9 5 6 7 3 3 -7 -3 -12 0 -18 10 -18 9 0 12 5 8 12 -4 6 -3 8 4 4 5 -3 13
0 16 6 3 7 4 4 1 -8 -4 -15 4 -26 27 -43 l33 -22 -27 24 c-22 21 -25 27 -13
37 9 8 15 8 20 0 5 -8 10 -8 20 0 9 8 15 8 20 0 3 -6 10 -8 15 -5 5 3 10 -3
12 -12 3 -15 5 -14 10 5 3 12 3 20 -1 18 -4 -3 -13 0 -21 5 -11 7 -8 8 10 5
14 -3 30 -5 35 -5 6 -1 3 -6 -5 -12 -12 -9 -12 -10 3 -5 10 3 21 6 23 6 3 0 3
4 0 8 -2 4 4 9 15 9 16 2 18 -1 10 -11 -8 -9 -6 -18 5 -32 15 -18 15 -18 5 3
-8 16 -7 22 5 27 12 5 14 10 5 19 -8 10 -7 14 4 14 8 0 12 -4 9 -9 -3 -4 0 -8
6 -8 7 0 10 -7 6 -17 -5 -16 -4 -15 9 1 12 16 17 17 32 5 14 -10 16 -10 6 0
-14 16 -6 41 14 41 8 0 12 4 8 9 -3 5 0 13 6 17 7 4 9 3 6 -2 -3 -6 3 -15 14
-22 10 -7 19 -9 18 -5 -3 20 2 32 14 29 6 -1 9 -1 4 1 -4 3 -5 9 -2 13 3 5 0
12 -6 16 -7 4 -10 3 -7 -2 4 -5 -6 -10 -20 -11 l-27 -1 25 13 c14 8 35 11 46
9 12 -3 25 -1 28 4 4 6 -3 8 -16 5 -23 -4 -23 -4 -3 13 18 15 18 16 1 10 -20
-7 -49 11 -40 25 3 5 0 9 -6 9 -6 0 -8 5 -4 12 4 7 3 8 -5 4 -6 -4 -9 -11 -6
-16 3 -4 1 -18 -3 -31 l-9 -23 -5 22 c-4 15 -2 20 5 16 7 -4 0 5 -15 18 -15
14 -25 27 -23 30 3 2 -2 5 -10 5 -8 0 -12 -4 -9 -9 3 -4 -2 -8 -11 -8 -9 0
-14 -4 -11 -8 2 -4 -4 -8 -14 -8 -10 0 -17 3 -14 7 9 16 -22 15 -41 0 -18 -15
-19 -15 -7 0 16 21 -6 43 -28 29 -8 -5 -18 -6 -23 -3 -5 3 -26 7 -46 10 -36 4
-36 4 -11 -11 30 -18 21 -21 -15 -4 -27 12 -31 23 -13 34 7 4 8 3 4 -4 -5 -8
-2 -10 8 -6 21 8 11 23 -14 21 -10 -1 -17 -4 -15 -7 2 -4 -9 -7 -25 -7 -26 0
-28 3 -18 16 7 9 2 7 -11 -4 -13 -11 -25 -20 -27 -20 -2 0 -10 9 -19 20 l-15
20 6 -20z m-6 -30 c0 -8 -5 -17 -11 -21 -8 -4 -9 1 -5 17 l7 24 -20 -23 c-12
-13 -21 -18 -23 -10 -2 6 -13 12 -24 14 -18 3 -18 2 1 -13 18 -14 18 -15 1 -9
-14 5 -17 2 -12 -11 5 -16 4 -16 -6 -3 -14 16 -32 20 -43 8 -4 -4 -14 -4 -23
-1 -10 4 -13 2 -8 -5 4 -7 2 -12 -3 -12 -6 0 -9 10 -7 23 2 12 10 21 17 19 40
-10 50 -10 55 3 6 14 37 15 50 2 3 -3 13 1 21 9 16 16 33 10 33 -11z m68 -5
c9 -16 8 -16 -14 -6 -26 12 -31 23 -10 23 7 0 18 -8 24 -17z m36 12 c3 -5 -1
-9 -9 -9 -8 0 -15 4 -15 9 0 4 4 8 9 8 6 0 12 -4 15 -8z m281 -41 c3 -6 -4
-15 -15 -21 -20 -11 -21 -10 -10 9 12 23 16 25 25 12z m19 -37 c3 -8 2 -12 -4
-9 -6 3 -10 10 -10 16 0 14 7 11 14 -7z m-654 -9 c7 -8 16 -13 20 -10 5 3 11
1 14 -4 7 -11 -13 -9 -33 3 -11 7 -13 5 -8 -7 4 -10 2 -14 -6 -11 -14 5 -20
44 -8 44 5 0 14 -7 21 -15z m714 -16 c-10 -16 -23 -9 -21 10 1 15 4 17 14 9 7
-5 10 -14 7 -19z m-64 -39 c0 -5 -5 -10 -11 -10 -5 0 -7 5 -4 10 3 6 8 10 11
10 2 0 4 -4 4 -10z m53 -15 c-3 -9 -8 -14 -10 -11 -3 3 -2 9 2 15 9 16 15 13
8 -4z m-76 -24 c0 -11 -5 -17 -9 -15 -4 3 -8 0 -8 -7 0 -7 -3 -10 -6 -7 -4 5
16 48 23 48 1 0 1 -9 0 -19z"/>
<path d="M2603 1063 c9 -11 14 -23 10 -26 -4 -4 8 0 25 9 18 8 30 20 27 25 -4
5 -8 9 -11 9 -3 0 -2 -5 1 -10 8 -13 -32 -9 -55 4 -11 7 -10 3 3 -11z"/>
<path d="M2675 1050 c-10 -11 -16 -20 -14 -21 20 -4 37 -8 51 -14 19 -8 45 29
28 40 -6 4 -10 3 -9 -2 3 -19 -2 -33 -12 -33 -5 0 -8 4 -4 9 3 5 0 13 -6 17
-8 4 -9 3 -5 -4 4 -7 3 -12 -3 -12 -19 0 -21 19 -4 29 10 6 13 11 7 11 -6 0
-19 -9 -29 -20z"/>
<path d="M2174 1049 c-3 -6 -2 -15 3 -20 5 -5 9 -1 9 11 0 23 -2 24 -12 9z"/>
<path d="M2115 1011 c-3 -5 0 -13 6 -17 7 -4 9 -3 5 4 -3 5 0 13 6 15 9 4 10
6 1 6 -6 1 -14 -3 -18 -8z"/>
<path d="M2053 976 c-3 -6 -3 -8 2 -4 4 4 13 3 20 -2 8 -7 12 -5 12 3 0 16
-25 18 -34 3z"/>
<path d="M2865 980 c-3 -6 1 -7 9 -4 18 7 21 14 7 14 -6 0 -13 -4 -16 -10z"/>
<path d="M2055 900 c-4 -6 1 -7 12 -3 15 6 16 4 6 -8 -10 -13 -10 -16 2 -16 8
0 11 5 8 10 -4 7 1 8 13 4 18 -7 18 -7 0 8 -23 18 -33 19 -41 5z"/>
<path d="M2910 906 c0 -2 7 -7 16 -10 8 -3 12 -2 9 4 -6 10 -25 14 -25 6z"/>
<path d="M2810 842 c0 -5 7 -9 15 -9 8 0 12 4 9 9 -3 4 -9 8 -15 8 -5 0 -9 -4
-9 -8z"/>
<path d="M2195 801 c-3 -5 -2 -12 3 -15 5 -3 9 1 9 9 0 17 -3 19 -12 6z"/>
<path d="M2402 798 c-7 -7 -12 -16 -12 -21 0 -5 7 -1 16 8 9 9 14 18 12 20 -2
3 -10 -1 -16 -7z"/>
<path d="M2433 790 c1 -11 5 -20 10 -20 5 0 6 8 3 18 -5 14 -4 14 9 -2 8 -11
15 -15 15 -10 0 12 -21 34 -31 34 -4 0 -7 -9 -6 -20z"/>
<path d="M2544 792 c15 -17 22 -19 28 -10 4 7 8 18 8 23 0 6 -4 4 -9 -4 -8
-13 -12 -13 -28 -1 -16 13 -16 12 1 -8z"/>
<path d="M2295 780 c-3 -5 -1 -10 4 -10 6 0 11 5 11 10 0 6 -2 10 -4 10 -3 0
-8 -4 -11 -10z"/>
</g>
</svg>
